P2
# CREATOR: GIMP PNM
40 40
255
255
255
255
255
255
255
255
255
255
255
255
255
255
255
255
255
255
255
254
255
255
253
254
255
254
254
254
253
255
254
251
241
252
253
252
254
254
251
255
254
255
255
255
255
255
255
255
255
255
255
255
255
255
255
255
255
254
251
255
255
250
255
252
254
254
255
254
253
255
254
253
223
253
252
254
251
237
254
252
255
255
255
255
255
255
255
255
255
255
255
255
255
255
255
255
255
255
255
255
250
255
254
254
254
254
255
255
245
254
253
250
209
250
251
253
224
248
253
255
255
255
255
255
255
255
255
255
255
255
255
255
255
255
255
255
255
251
255
255
255
254
252
254
253
213
57
174
253
210
228
252
214
227
252
200
242
252
249
254
252
255
255
255
255
255
255
255
255
255
255
255
255
255
255
255
255
255
255
252
255
255
255
254
246
0
63
0
152
254
215
194
234
197
203
243
247
251
245
231
248
255
255
255
255
255
255
255
255
255
255
255
255
255
255
255
255
255
255
254
255
254
255
253
81
33
254
198
1
133
251
239
186
222
184
218
207
200
227
254
250
255
255
255
255
255
255
255
255
255
255
255
255
255
255
255
255
254
255
252
254
253
255
255
0
189
254
253
197
1
70
237
199
136
224
200
249
253
254
251
255
255
255
255
255
255
255
255
255
255
255
255
255
255
255
255
255
252
255
139
81
158
254
218
2
254
254
252
254
235
13
3
5
31
211
202
240
251
253
254
253
255
254
255
251
255
255
253
255
255
255
254
255
255
252
254
254
253
254
1
20
87
82
66
41
255
254
254
253
254
254
210
189
232
215
247
201
229
252
253
254
251
255
254
255
255
254
255
253
253
254
255
249
255
255
253
254
254
74
0
3
3
79
43
43
219
255
253
254
255
253
254
210
252
210
252
253
237
237
252
253
255
254
255
251
255
254
253
255
255
255
255
192
135
104
99
109
136
1
1
0
1
2
41
88
68
173
254
254
252
254
253
227
254
234
243
254
254
254
255
255
252
252
255
255
252
252
254
255
192
52
0
0
0
0
2
0
1
1
0
0
2
1
1
2
35
27
219
250
254
255
240
251
255
252
244
253
253
254
255
255
255
255
255
254
251
255
224
25
0
0
2
1
0
0
0
1
0
2
0
0
0
0
4
0
0
26
255
254
254
252
252
255
254
254
254
255
253
254
253
254
255
251
255
255
255
138
0
2
1
2
0
0
0
2
4
0
4
1
1
2
0
2
0
1
1
225
253
251
254
255
255
253
249
254
254
252
255
255
254
255
255
253
255
255
96
2
0
0
0
3
3
1
2
0
0
0
1
2
1
3
0
0
5
1
75
252
254
255
255
253
254
252
254
251
255
255
252
253
254
254
253
255
254
118
1
0
1
1
3
0
0
0
3
0
3
0
2
1
5
1
1
1
1
1
1
178
254
254
251
255
253
254
254
254
254
255
254
254
254
253
255
253
194
0
0
2
0
0
0
0
0
0
0
0
0
0
0
3
1
1
3
1
0
0
100
26
236
253
255
255
252
255
255
255
255
255
255
255
255
255
255
250
8
0
1
1
0
0
0
0
0
0
0
0
0
0
2
0
2
0
0
0
0
0
146
144
50
255
255
255
255
255
255
255
255
255
255
255
255
255
253
137
0
0
0
0
1
2
0
0
0
0
0
0
0
0
0
1
0
0
9
0
0
59
164
150
88
179
253
255
255
253
255
255
255
255
255
255
255
255
255
0
2
0
4
0
0
0
0
0
0
0
0
0
0
0
0
0
3
0
0
3
1
0
53
161
149
68
252
255
255
254
255
255
255
255
255
255
255
255
197
0
4
2
0
0
3
0
0
0
0
0
0
0
0
0
0
1
0
0
0
0
0
2
1
45
165
60
239
254
250
255
255
255
255
255
255
255
255
255
107
2
0
0
2
0
0
2
0
0
0
0
0
0
0
0
0
0
0
1
0
1
4
0
3
0
78
139
137
255
255
255
255
255
255
255
255
255
255
255
50
4
0
1
0
0
0
0
0
0
0
0
0
0
0
0
2
0
1
1
0
1
2
0
0
3
0
122
88
255
255
253
255
255
255
255
255
255
255
255
5
0
0
1
1
2
0
6
0
0
0
0
0
0
0
0
0
0
2
0
1
4
0
2
3
0
1
13
75
255
255
255
255
255
255
255
255
255
255
255
0
2
0
2
0
1
0
3
0
0
0
0
0
0
0
0
0
0
0
0
0
0
1
2
1
1
0
5
19
253
255
252
255
255
255
255
255
255
255
255
0
0
1
3
1
0
0
0
0
0
0
0
0
0
0
0
1
0
0
0
0
0
0
1
0
1
0
0
6
255
252
255
255
255
255
255
255
255
255
255
0
6
2
0
0
0
1
0
0
0
0
0
0
0
0
0
1
0
0
0
0
0
0
0
2
0
5
2
25
255
253
255
255
255
255
255
255
255
255
255
32
0
0
3
0
2
0
1
0
0
0
0
0
0
0
0
0
0
0
0
1
0
0
0
0
7
0
0
61
255
253
253
255
255
255
255
255
255
255
255
76
2
0
2
5
0
0
0
0
0
0
0
0
0
0
0
1
0
0
1
1
0
0
0
1
0
3
1
125
251
255
252
255
255
255
255
255
255
255
255
156
3
0
0
3
0
1
0
0
0
0
0
0
0
0
1
3
2
1
1
1
0
0
0
2
0
0
0
201
255
252
255
255
255
255
255
255
255
255
255
248
0
0
0
0
5
0
0
0
0
0
0
1
1
1
1
3
1
0
1
1
0
0
0
0
3
0
0
255
255
253
252
255
255
255
255
255
255
255
255
255
54
2
0
1
0
2
0
0
0
0
0
0
0
1
1
1
0
0
0
0
1
1
1
1
0
0
126
254
255
254
255
255
255
255
255
255
255
255
255
254
226
1
0
0
1
0
2
0
0
3
0
0
0
3
0
2
0
1
0
3
0
1
0
0
3
0
255
255
253
255
254
255
255
255
255
255
255
255
255
255
255
82
0
0
1
3
0
0
3
0
0
2
0
0
0
0
0
0
4
0
0
0
0
4
0
165
254
252
253
255
255
255
255
255
255
255
255
255
255
255
251
255
8
1
2
3
1
0
1
3
1
0
2
0
2
1
2
1
0
0
0
1
0
0
62
255
255
255
253
255
255
255
255
255
255
255
255
255
255
253
254
253
251
0
3
1
0
0
0
0
2
2
1
0
0
0
4
0
0
4
0
2
0
31
255
254
250
255
254
255
255
255
255
255
255
255
255
255
255
255
255
255
250
252
7
0
4
0
5
0
0
2
0
0
4
0
1
0
6
1
0
1
47
255
255
255
255
255
255
254
254
255
255
255
255
255
255
255
255
255
253
254
255
254
255
78
0
3
0
4
0
0
3
0
0
0
0
4
0
0
3
119
255
253
255
253
252
255
253
250
255
255
255
255
255
255
255
255
255
255
255
254
254
255
251
253
213
41
0
1
1
0
3
0
0
0
2
0
0
70
238
255
255
255
253
255
253
254
255
255
250
255
255
255
255
255
255
255
255
255
254
255
255
253
255
255
253
255
239
141
67
21
0
3
1
29
85
158
252
255
253
255
255
255
255
252
255
255
253
255
255
255
255
255
255
255
255
255
255
